<?xml version="1.0" encoding="UTF-8"?>
<svg width="18px" height="18px" viewBox="0 0 18 18" version="1.1" xmlns="http://www.w3.org/2000/svg" xmlns:xlink="http://www.w3.org/1999/xlink">
    <!-- Generator: Sketch 47.1 (45422) - http://www.bohemiancoding.com/sketch -->
    <title>Combined Shape</title>
    <desc>Created with Sketch.</desc>
    <defs></defs>
    <g id="Page-1" stroke="none" stroke-width="1" fill="none" fill-rule="evenodd">
        <g id="Register" transform="translate(-1367.000000, -55.000000)" fill-rule="nonzero" fill="#FFFFFF">
            <g id="Close" transform="translate(1352.000000, 40.000000)">
                <path d="M23.8758057,22.4615921 L17.0404401,15.6262266 C16.6499158,15.2357023 16.0167508,15.2357023 15.6262266,15.6262266 C15.2357023,16.0167508 15.2357023,16.6499158 15.6262266,17.0404401 L22.4615921,23.8758057 L15.6262266,30.7111712 C15.2357023,31.1016955 15.2357023,31.7348605 15.6262266,32.1253848 C16.0167508,32.5159091 16.6499158,32.5159091 17.0404401,32.1253848 L23.8758057,25.2900192 L30.7111712,32.1253848 C31.1016955,32.5159091 31.7348605,32.5159091 32.1253848,32.1253848 C32.5159091,31.7348605 32.5159091,31.1016955 32.1253848,30.7111712 L25.2900192,23.8758057 L32.1253848,17.0404401 C32.5159091,16.6499158 32.5159091,16.0167508 32.1253848,15.6262266 C31.7348605,15.2357023 31.1016955,15.2357023 30.7111712,15.6262266 L23.8758057,22.4615921 Z" id="Combined-Shape"></path>
            </g>
        </g>
    </g>
</svg>