<?xml version="1.0" encoding="UTF-8"?>
<svg width="328px" height="192px" viewBox="0 0 328 192" version="1.1" xmlns="http://www.w3.org/2000/svg" xmlns:xlink="http://www.w3.org/1999/xlink">
    <!-- Generator: Sketch 47.1 (45422) - http://www.bohemiancoding.com/sketch -->
    <title>Canyon Gate Logo</title>
    <desc>Created with Sketch.</desc>
    <defs></defs>
    <g id="Page-1" stroke="none" stroke-width="1" fill="none" fill-rule="evenodd">
        <g id="Home" transform="translate(-136.000000, -103.000000)">
            <g id="Canyon-Gate-Logo" transform="translate(136.000000, 103.000000)">
                <path d="M18.9122737,131.931018 C17.5701166,131.293666 16.2078303,130.976937 14.8267135,130.976937 C13.1001553,130.976937 11.5183968,131.385829 10.0833859,132.210103 C8.64902445,133.033729 7.51854761,134.16954 6.69650069,135.616239 C5.87185647,137.060342 5.45953435,138.649829 5.45953435,140.37756 C5.45953435,142.103993 5.87185647,143.690884 6.69650069,145.137583 C7.51854761,146.583633 8.64902445,147.728531 10.0833859,148.563839 C11.5183968,149.397849 13.1001553,149.820371 14.8267135,149.820371 C16.1539362,149.820371 17.4902494,149.527656 18.8317573,148.944173 C20.1739145,148.358744 21.3641293,147.551344 22.3991552,146.51159 L25.5483871,150.017677 C24.0861046,151.507213 22.386818,152.681317 20.4453328,153.544534 C18.5070942,154.40775 16.5402853,154.83871 14.546854,154.83871 C11.8631889,154.83871 9.40548943,154.201357 7.17375542,152.924705 C4.9420214,151.651948 3.18754212,149.919024 1.91161622,147.728531 C0.637638289,145.535441 0,143.113243 0,140.457391 C0,137.80154 0.649975486,135.381937 1.95187444,133.206372 C3.25507204,131.028859 5.02773246,129.317354 7.27375165,128.064716 C9.51782286,126.818569 12.0099367,126.193548 14.7461971,126.193548 C16.7396284,126.193548 18.6934508,126.592056 20.6063657,127.389071 C22.5179819,128.182841 24.1529852,129.289446 25.5094275,130.697852 L22.3991552,134.601148 C21.4160754,133.458847 20.2524829,132.567721 18.9122737,131.931018" id="Fill-1" fill="#002A3A"></path>
                <path d="M40.2313566,144.368856 L50.1476655,144.368856 L45.2299013,132.66218 L40.2313566,144.368856 Z M54.581403,154.83871 L52.0831157,148.945809 L38.2959064,148.945809 L35.7969624,154.83871 L30.1935484,154.83871 L42.5693962,126.967742 L48.1728102,126.967742 L60.3870968,154.83871 L54.581403,154.83871 L54.581403,154.83871 Z" id="Fill-4" fill="#002A3A"></path>
                <polyline id="Fill-5" fill="#002A3A" points="86.9172624 126.967742 92.1290323 126.967742 92.1290323 154.83871 87.0367805 154.83871 72.6057948 135.651436 72.6057948 154.83871 67.3548387 154.83871 67.3548387 126.967742 72.4457843 126.967742 86.9172624 146.199767 86.9172624 126.967742"></polyline>
                <polyline id="Fill-6" fill="#002A3A" points="125.419355 126.967742 115.092738 145.721771 115.092738 154.83871 109.666184 154.83871 109.666184 145.919585 99.0967742 126.967742 104.605139 126.967742 112.338886 140.066896 119.953215 126.967742 125.419355 126.967742"></polyline>
                <path d="M138.876925,132.231521 C137.393986,133.065531 136.218975,134.207833 135.355191,135.654532 C134.492725,137.105774 134.061493,138.704348 134.061493,140.457391 C134.061493,142.207839 134.499979,143.819393 135.376291,145.279722 C136.252604,146.741349 137.426295,147.892088 138.898685,148.742973 C140.367118,149.594507 141.965449,150.017677 143.693018,150.017677 C145.394211,150.017677 146.972761,149.594507 148.428666,148.742973 C149.88589,147.892088 151.039141,146.741349 151.890397,145.279722 C152.739675,143.819393 153.164314,142.207839 153.164314,140.457391 C153.164314,138.704348 152.739675,137.105774 151.890397,135.654532 C151.039141,134.207833 149.88589,133.065531 148.428666,132.231521 C146.972761,131.393617 145.394211,130.976937 143.693018,130.976937 C141.965449,130.976937 140.361184,131.393617 138.876925,132.231521 Z M151.282451,128.064716 C153.588953,129.317354 155.4029,131.028859 156.72627,133.206372 C158.048322,135.381937 158.709677,137.80154 158.709677,140.457391 C158.709677,143.113243 158.048322,145.535441 156.72627,147.728531 C155.4029,149.919024 153.588953,151.651948 151.282451,152.924705 C148.97529,154.201357 146.418224,154.83871 143.613233,154.83871 C140.805604,154.83871 138.250517,154.201357 135.944015,152.924705 C133.634875,151.651948 131.820269,149.919024 130.498877,147.728531 C129.175506,145.535441 128.516129,143.113243 128.516129,140.457391 C128.516129,137.80154 129.175506,135.381937 130.498877,133.206372 C131.820269,131.028859 133.634875,129.317354 135.944015,128.064716 C138.250517,126.818569 140.805604,126.193548 143.613233,126.193548 C146.418224,126.193548 148.97529,126.818569 151.282451,128.064716 L151.282451,128.064716 Z" id="Fill-7" fill="#002A3A"></path>
                <polyline id="Fill-8" fill="#002A3A" points="186.01328 126.967742 191.225806 126.967742 191.225806 154.83871 186.134092 154.83871 171.70528 135.651436 171.70528 154.83871 166.451613 154.83871 166.451613 126.967742 171.543981 126.967742 186.01328 146.199767 186.01328 126.967742"></polyline>
                <path d="M235.076849,140.575516 L239.800706,140.575516 L239.800706,151.175556 C238.320801,152.263988 236.569909,153.144079 234.55066,153.824917 C232.532069,154.499264 230.552285,154.83871 228.615254,154.83871 C225.842898,154.83871 223.319824,154.201357 221.043401,152.924705 C218.77224,151.651948 216.975306,149.919024 215.655888,147.728531 C214.337786,145.535441 213.677419,143.113243 213.677419,140.457391 C213.677419,137.80154 214.349625,135.390375 215.69601,133.226492 C217.041737,131.058715 218.878793,129.347859 221.20915,128.086135 C223.534904,126.826358 226.111912,126.193548 228.93886,126.193548 C230.95745,126.193548 232.948416,126.549869 234.91373,127.268999 C236.879702,127.987481 238.575345,128.971418 240,130.220162 L236.932321,134.162401 C235.855608,133.154449 234.610514,132.368468 233.199013,131.810947 C231.786855,131.255373 230.367461,130.976937 228.93886,130.976937 C227.161,130.976937 225.5285,131.393617 224.034125,132.231521 C222.540407,133.065531 221.363718,134.215621 220.501427,135.67595 C219.637162,137.137577 219.208976,138.732256 219.208976,140.457391 C219.208976,142.207839 219.645713,143.819393 220.521159,145.279722 C221.395947,146.741349 222.575267,147.892088 224.053857,148.742973 C225.533762,149.594507 227.176786,150.017677 228.978981,150.017677 C229.946511,150.017677 230.966001,149.865803 232.027586,149.55881 C233.089829,149.255061 234.107346,148.824102 235.076849,148.263336 L235.076849,140.575516" id="Fill-9" fill="#002A3A"></path>
                <path d="M255.45607,144.368856 L265.373261,144.368856 L260.454397,132.66218 L255.45607,144.368856 Z M269.808775,154.83871 L267.306656,148.945809 L253.52136,148.945809 L251.023182,154.83871 L245.419355,154.83871 L257.792694,126.967742 L263.398491,126.967742 L275.612903,154.83871 L269.808775,154.83871 L269.808775,154.83871 Z" id="Fill-10" fill="#002A3A"></path>
                <polyline id="Fill-11" fill="#002A3A" points="276.387097 126.967742 299.612903 126.967742 299.612903 131.708135 290.74576 131.708135 290.74576 154.83871 285.255566 154.83871 285.255566 131.708135 276.387097 131.708135 276.387097 126.967742"></polyline>
                <polyline id="Fill-12" fill="#002A3A" points="306.580645 126.967742 327.007043 126.967742 327.007043 131.625767 311.916576 131.625767 311.916576 138.515518 325.456542 138.515518 325.456542 143.173543 311.916576 143.173543 311.916576 150.179388 327.483871 150.179388 327.483871 154.83871 306.580645 154.83871 306.580645 126.967742"></polyline>
                <path d="M131.928284,92.1290323 C131.928284,92.1290323 165.499174,84.5136125 158.532211,79.6156847 C151.567212,74.7210437 141.887166,72.6076579 141.352404,69.0145733 C140.815024,65.418202 144.865994,60.7437739 150.300016,57.6897177 C150.300016,57.6897177 133.51948,54.7881672 126.67819,40.2580645 C126.67819,40.2580645 122.483219,52.0746192 127.053243,62.3141871 C127.053243,62.3141871 122.649474,62.6974232 117.768541,57.0934997 C117.768541,57.0934997 115.642584,76.9724734 131.928284,92.1290323" id="Fill-13" fill="#4B422B"></path>
                <path d="M150.627733,58.0645161 C150.627733,58.0645161 136.127428,48.9027704 132.387097,41.646309 C132.387097,41.646309 132.601631,29.2427848 137.000563,21.4942386 C137.000563,21.4942386 140.575918,27.1262356 144.744014,28.5615368 C144.744014,28.5615368 144.210613,18.6743399 146.911528,12.3870968 C146.911528,12.3870968 157.455011,34.411299 187.354839,40.8266012 C187.354839,40.8266012 162.653393,50.2412147 150.627733,58.0645161" id="Fill-14" fill="#B43F26"></path>
                <path d="M155.612903,17.8003469 C155.612903,17.8003469 157.661141,5.19513567 164.578464,0 C164.578464,0 170.406243,5.19513567 172.314425,12.7681703 C172.314425,12.7681703 176.800822,10.8478605 179.659149,6.70283314 C179.659149,6.70283314 185.063472,17.2182571 184.020613,25.463335 C184.020613,25.463335 188.940329,22.878152 189.635349,19.0616502 C189.635349,19.0616502 194.956164,27.2245968 193.188696,36.6931715 C193.188696,36.6931715 191.680957,38.4283599 187.255711,40.2580645 C187.255711,40.2580645 167.480847,30.8096967 155.612903,17.8003469" id="Fill-15" fill="#B8B299"></path>
                <path d="M200.085407,87.386601 C191.987775,97.4030804 176.368401,107.739103 153.970598,103.566167 C153.970598,103.566167 179.339053,94.7061608 180.208098,84.350614 C180.869981,76.5728903 169.185417,72.1428873 166.494892,71.3580212 C163.576357,70.5061226 152.609049,66.9612091 153.3237,63.4553437 C154.033138,59.9520815 164.407618,53.5859453 173.135211,49.4956605 C181.862152,45.4034233 193.706975,41.8337794 200.927743,34.0645161 C200.927743,34.0645161 203.448237,44.851544 199.417662,54.7196408 C199.417662,54.7196408 206.905529,49.2555149 208.993454,47.0492993 C208.993454,47.0492993 210.196698,62.2402981 199.202681,77.7000777 C199.202681,77.7000777 203.636509,75.5914822 208.236459,72.2131738 C208.236459,72.2131738 206.360909,79.6270997 200.085407,87.386601" id="Fill-16" fill="#002A3A"></path>
                <path d="M38.4125936,182.709643 L42.4745903,182.709643 L40.5487727,176.909584 L38.4125936,182.709643 Z M41.9216586,174.193548 L46.4102399,187.465979 L48,187.965578 L47.8970987,188.903226 L41.9542223,188.903226 L42.0929437,188.046116 L44.0663043,187.407049 L42.8106478,183.879738 L37.9736348,183.879738 L36.6717378,187.465979 L38.8287578,187.965578 L38.6900364,188.903226 L33.2903226,188.903226 L33.4062494,188.046116 L35.1132389,187.407049 L40.1671261,174.554333 L41.9216586,174.193548 L41.9216586,174.193548 Z" id="Fill-17" fill="#B43F26"></path>
                <polyline id="Fill-18" fill="#B43F26" points="52.6451613 174.193548 65.8064516 174.193548 65.4025998 178.193812 64.2913386 178.012952 63.8279788 175.283377 60.2160458 175.283377 60.2160458 187.556457 62.4064739 187.947541 62.2520206 188.903226 55.8565857 188.903226 55.9508623 188.029628 57.9520685 187.473035 57.9520685 175.283377 54.447116 175.283377 53.8299716 178.145761 52.7401066 177.987592 52.6451613 174.193548"></polyline>
                <path d="M82.6823835,192 L82.0645161,191.003996 C82.9919608,190.132172 83.6741894,189.313478 84.1066965,188.53831 C84.5398473,187.768263 84.7554573,186.944448 84.7554573,186.070704 L84.7676859,175.533929 L82.7042663,175.057051 L82.8188292,174.193548 L89.0322581,174.193548 L88.9189824,175.057051 L86.9797799,175.500003 L86.9572534,183.936592 C86.9495301,184.882668 86.899972,185.694322 86.8092227,186.371553 C86.7171862,187.044304 86.5800969,187.642163 86.3985984,188.155527 C86.215169,188.669532 85.9461392,189.14321 85.5844294,189.583602 C85.2227195,190.023355 84.8262546,190.42086 84.391173,190.773558 C83.9605967,191.128817 83.3884257,191.539124 82.6823835,192" id="Fill-20" fill="#B43F26"></path>
                <path d="M103.484728,187.374863 C104.661451,187.374863 105.57325,187.019901 106.218197,186.304747 C106.86443,185.589593 107.19044,184.494637 107.199443,183.019878 L107.209088,175.562407 L105.135998,175.075397 L105.249812,174.193548 L110.709677,174.193548 L110.571429,175.075397 L108.678384,175.527761 L108.622441,182.636806 C108.607009,184.753504 108.142107,186.326319 107.228379,187.357213 C106.312721,188.390067 104.874933,188.903226 102.916944,188.903226 C102.337584,188.903226 101.809024,188.86335 101.326117,188.781637 C100.84514,188.698616 100.346801,188.53519 99.8336727,188.29005 C99.3218305,188.043603 98.8910085,187.713482 98.5418497,187.304916 C98.191405,186.89635 97.903976,186.338086 97.6750616,185.638621 C97.4474333,184.935888 97.3329761,184.112873 97.3329761,183.171537 L97.3329761,175.562407 L95.2258065,175.075397 L95.3724145,174.193548 L101.549244,174.193548 L101.445719,175.075397 L99.51988,175.527761 L99.51988,182.69564 C99.51988,184.28872 99.8748258,185.463428 100.584075,186.229571 C101.295252,186.991791 102.262994,187.374863 103.484728,187.374863" id="Fill-22" fill="#B43F26"></path>
                <polyline id="Fill-23" fill="#B43F26" points="128.635614 188.903226 121.158714 177.463017 121.158714 187.242098 123.219137 187.623982 123.105976 188.557185 117.745443 188.557185 117.836354 187.704138 119.716227 187.160639 119.716227 175.649397 117.677419 175.072662 117.791216 174.193548 121.756306 174.193548 128.985269 185.4174 128.985269 175.558162 126.901324 175.072662 127.025929 174.193548 132.387097 174.193548 132.240242 175.072662 130.359732 175.523623 130.359732 188.533073 128.635614 188.903226"></polyline>
                <polyline id="Fill-24" fill="#B43F26" points="145.43669 188.903226 139.421355 188.903226 139.508579 188.029628 141.367271 187.473035 141.367271 175.591038 139.354839 175.093841 139.465281 174.193548 145.524542 174.193548 145.414099 175.093841 143.523404 175.555667 143.523404 187.556457 145.548387 187.947541 145.43669 188.903226"></polyline>
                <path d="M164.129032,178.448211 C164.129032,179.121704 163.982,179.75484 163.690573,180.347619 C163.397827,180.94106 163.004203,181.438572 162.509041,181.833537 C162.015857,182.238427 161.440915,182.548048 160.786853,182.779603 C160.134109,183.009834 159.456311,183.126934 158.756095,183.126934 C158.465986,183.126934 158.077637,183.110395 157.588409,183.077977 L157.376102,182.107433 L157.995879,182.080308 C159.249938,182.044583 160.184219,181.762748 160.80004,181.238112 C161.413223,180.714798 161.720474,179.927513 161.720474,178.88221 C161.720474,178.366836 161.65454,177.888511 161.518058,177.453188 C161.381575,177.01522 161.169268,176.619592 160.881138,176.266968 C160.591689,175.919636 160.206636,175.643094 159.720045,175.447927 C159.232136,175.251436 158.669062,175.157491 158.028846,175.157491 L156.840721,175.237543 L156.840721,187.462295 L159.59609,187.918789 L159.445102,188.903226 L152.516129,188.903226 L152.63415,188.037212 L154.608205,187.485451 L154.608205,175.953377 L152.599865,175.612 L152.704699,174.708937 C154.96161,174.366237 156.824897,174.193563 158.288625,174.193563 C162.181351,174.18827 164.129032,175.605384 164.129032,178.448211" id="Fill-25" fill="#B43F26"></path>
                <polyline id="Fill-26" fill="#B43F26" points="170.439553 174.193548 182.166022 174.193548 181.788521 177.978916 180.778306 177.813406 180.295795 175.283377 174.736954 175.283377 174.736954 180.901364 178.152411 180.901364 178.658848 179.490527 179.763439 179.3397 179.386602 183.926588 178.36243 184.080085 177.97363 182.007877 174.736954 182.007877 174.736954 187.780696 180.59022 187.780696 181.732693 185.048451 182.709677 185.206619 182.352779 188.903226 170.392365 188.903226 170.487405 188.029628 172.452672 187.473035 172.452672 175.591038 170.322581 175.093841 170.439553 174.193548"></polyline>
                <path d="M195.533649,181.408511 C196.187204,181.195999 196.737983,180.832904 197.189937,180.325093 C197.641233,179.814674 197.869186,179.181703 197.869186,178.419008 C197.869186,177.447713 197.578644,176.659595 197.003489,176.057262 C196.428334,175.451017 195.635767,175.151806 194.619857,175.151806 C194.382021,175.151806 194.144185,175.155717 193.910961,175.167451 C193.678395,175.177229 193.505783,175.190267 193.397736,175.196785 L193.22117,175.209171 L193.22117,181.408511 L195.533649,181.408511 Z M200.284442,177.771043 C200.284442,178.556554 199.987312,179.320552 199.400298,180.064995 C198.81526,180.808785 197.993046,181.365487 196.933654,181.731841 L196.933654,181.754657 L199.046508,184.632037 C199.348909,185.03946 199.563686,185.330196 199.688863,185.499032 C199.813381,185.66852 199.985994,185.892765 200.207359,186.167857 C200.428725,186.446208 200.605949,186.641119 200.732444,186.758456 C200.862232,186.870579 201.025621,187.009429 201.22261,187.164575 C201.422234,187.324937 201.617905,187.446186 201.805671,187.534841 C201.997389,187.625451 202.214802,187.703025 202.453955,187.774731 L202.83871,187.887506 L202.66478,188.68475 C202.22139,188.837289 201.754282,188.911603 201.263457,188.902476 C200.400395,188.902476 199.63484,188.626081 198.964155,188.072638 C198.296764,187.519848 197.676151,186.74216 197.110219,185.740878 L195.252989,182.462594 L193.22117,182.462594 L193.22117,187.206295 L195.428237,187.713455 L195.310966,188.661934 L188.903226,188.661934 L189.017862,187.808629 L190.993021,187.264964 L190.993021,175.947746 L188.984261,175.600297 L189.092309,174.724175 C191.379093,174.370207 193.162535,174.193548 194.434727,174.193548 C195.332048,174.193548 196.124616,174.254173 196.816383,174.376726 C197.510126,174.49993 198.121517,174.698752 198.649236,174.969933 C199.178932,175.246328 199.584769,175.61529 199.863452,176.078774 C200.142794,176.542257 200.284442,177.110041 200.284442,177.771043 L200.284442,177.771043 Z" id="Fill-27" fill="#B43F26"></path>
                <polyline id="Fill-28" fill="#B43F26" points="232.523504 188.903226 229.53226 177.579535 226.273308 188.555861 224.421923 188.903226 220.68432 175.563381 219.096774 175.076024 219.188376 174.193548 225.072166 174.193548 224.916056 175.076024 222.995003 175.52871 225.760468 185.460327 228.970394 174.772489 230.994015 174.483346 233.816247 185.287626 236.80104 175.563381 234.730973 175.076024 234.868375 174.193548 240 174.193548 239.862598 175.076024 238.467931 175.52871 234.285867 188.555861 232.523504 188.903226"></polyline>
                <polyline id="Fill-29" fill="#B43F26" points="247.087379 174.193548 258.815142 174.193548 258.438285 177.978916 257.424693 177.813406 256.941492 175.283377 251.384346 175.283377 251.384346 180.901364 254.799322 180.901364 255.304457 179.490527 256.413094 179.3397 256.036902 183.926588 255.012675 184.080085 254.624519 182.007877 251.384346 182.007877 251.384346 187.780696 257.236597 187.780696 258.379796 185.048451 259.354839 185.206619 259.005897 188.903226 247.040854 188.903226 247.135234 188.029628 249.099277 187.473035 249.099277 175.591038 246.967742 175.093841 247.087379 174.193548"></polyline>
                <path d="M274.329584,178.544587 L273.153542,178.420858 L272.847128,176.24053 C272.715712,175.993713 272.461596,175.757153 272.076734,175.524439 C271.694554,175.286597 271.280861,175.171202 270.835655,175.171202 C270.194666,175.171202 269.672353,175.352629 269.269388,175.709713 C268.864412,176.071925 268.663935,176.605307 268.663935,177.306012 C268.663935,177.655403 268.740371,177.977227 268.901289,178.271485 C269.058184,178.568307 269.27207,178.826023 269.540267,179.050402 C269.812486,179.276064 270.120241,179.487622 270.471579,179.690204 C270.816881,179.895351 271.182299,180.092164 271.562467,180.282566 C271.941965,180.470404 272.324145,180.665935 272.706995,180.867235 C273.090516,181.069818 273.455934,181.290351 273.80526,181.535886 C274.156597,181.782703 274.46167,182.04683 274.727185,182.326984 C274.992029,182.605214 275.206586,182.940501 275.368845,183.331563 C275.531103,183.720701 275.612903,184.141252 275.612903,184.597063 C275.612903,185.234942 275.463384,185.82538 275.165015,186.36902 C274.868658,186.916506 274.477092,187.369752 273.991656,187.732606 C273.502868,188.09546 272.940997,188.382665 272.30336,188.589095 C271.664382,188.798088 271.009312,188.903226 270.33748,188.903226 C269.514118,188.903226 268.740371,188.74039 268.01557,188.418566 C267.290099,188.099306 266.726216,187.699911 266.322581,187.221662 L266.487521,184.189334 L267.70044,184.357939 L268.15235,186.491467 C268.382329,186.84214 268.716233,187.13768 269.155405,187.381933 C269.596588,187.62234 270.078671,187.745428 270.611711,187.745428 C270.944275,187.745428 271.267451,187.694782 271.584594,187.602466 C271.902406,187.508227 272.201445,187.369752 272.486404,187.186402 C272.772033,187.006258 273.001341,186.756235 273.171646,186.438898 C273.34195,186.119638 273.427103,185.758067 273.427103,185.359953 C273.427103,184.957994 273.30105,184.590011 273.050957,184.25793 C272.803546,183.923925 272.477688,183.634155 272.076734,183.38926 C271.677121,183.143725 271.235938,182.894343 270.753855,182.65009 C270.271102,182.404555 269.789019,182.142993 269.301572,181.867968 C268.8215,181.589737 268.377635,181.290351 267.972659,180.968526 C267.570364,180.649266 267.244506,180.251153 266.991731,179.776751 C266.744319,179.303631 266.62229,178.784994 266.62229,178.213788 C266.62229,177.389994 266.846234,176.664928 267.295463,176.045641 C267.748715,175.42443 268.319973,174.959644 269.007226,174.654488 C269.698503,174.348691 270.436043,174.193548 271.230574,174.193548 C272.519258,174.193548 273.640319,174.575635 274.589734,175.331473 L274.329584,178.544587" id="Fill-30" fill="#B43F26"></path>
                <polyline id="Fill-31" fill="#B43F26" points="281.032258 174.193548 294.193548 174.193548 293.787773 178.193812 292.674732 178.012952 292.212804 175.283377 288.602941 175.283377 288.602941 187.556457 290.79493 187.947541 290.63984 188.903226 284.245704 188.903226 284.339961 188.029628 286.340093 187.473035 286.340093 175.283377 282.833178 175.283377 282.216828 178.145761 281.127853 177.987592 281.032258 174.193548"></polyline>
            </g>
        </g>
    </g>
</svg>