<?xml version="1.0" encoding="UTF-8"?>
<svg width="120px" height="54px" viewBox="0 0 120 54" version="1.1" xmlns="http://www.w3.org/2000/svg" xmlns:xlink="http://www.w3.org/1999/xlink">
    <!-- Generator: Sketch 47.1 (45422) - http://www.bohemiancoding.com/sketch -->
    <title>Group</title>
    <desc>Created with Sketch.</desc>
    <defs></defs>
    <g id="Page-1" stroke="none" stroke-width="1" fill="none" fill-rule="evenodd">
        <g id="Register" transform="translate(-256.000000, -741.000000)">
            <g id="Group" transform="translate(256.000000, 741.000000)">
                <polyline id="Fill-1" fill="#FFFFFF" points="86 17 60 0 60 9.8068899 71.0006493 17 86 17"></polyline>
                <polyline id="Fill-2" fill="#FFFFFF" points="48.2128535 17 58 10.0636486 58 0 34 17 48.2128535 17"></polyline>
                <path d="M8.71429071,25 C10.1166918,25 11.6268944,25.2986392 11.864058,25.2986392 C12.0154702,25.2986392 12.1022015,25.1386725 12.2741941,25.1386725 C12.468237,25.1386725 12.468237,25.2763062 12.468237,25.6871299 C12.468237,27.8825179 12.5765286,28.2481562 12.5765286,28.6137945 C12.5765286,28.7737613 12.4466767,28.8428379 12.2090231,28.8428379 C12.0581009,28.8428379 12.0370306,28.7960943 11.930699,28.2933416 C11.6925554,27.1502026 11.4544118,26.899865 11.2829092,26.7393788 C11.065836,26.5550016 10.0299604,25.8938402 7.9596794,25.8938402 C4.09842148,25.8938402 2.00511008,28.4543471 2.00511008,32.4550743 C2.00511008,38.1027319 6.0403206,39.1980887 8.11158167,39.1980887 C8.93087396,39.1980887 10.3533653,38.9934559 10.7419411,38.6049652 C10.9800847,38.3759219 11.1731476,38.2164745 11.1731476,35.7936013 C11.1731476,33.6215851 11.1731476,33.1868703 9.16803752,33.0710502 C8.62755941,33.0481978 8.56385846,33.0481978 8.56385846,32.7983796 C8.56385846,32.5241508 8.5868888,32.4550743 8.80053201,32.4550743 C10.0534808,32.4550743 11.2388086,32.4550743 11.8204473,32.4327412 C12.7063806,32.4098889 13.5246929,32.3408123 13.8480977,32.3408123 C14,32.3408123 14,32.4774073 14,32.5921886 C14,32.7983796 14,32.8207126 13.8069371,32.888231 C13.5477232,32.9583463 13.0939764,33.0949413 13.0072451,33.6433988 C12.8999335,34.170562 12.8778832,36.0449777 12.8778832,36.6157682 C12.8778832,37.3698972 12.8999335,37.8030539 12.8999335,38.1250649 C12.8999335,38.6963748 13.0288054,38.9248987 13.0288054,39.0853849 C13.0288054,39.2224992 12.9420741,39.2671653 12.533408,39.360133 C10.9590144,39.749143 9.44734171,40 7.76514648,40 C1.94189913,40 0,36.3207645 0,32.8664174 C0,26.0065441 5.933009,25 8.71429071,25" id="Fill-4" fill="#FFFFFF"></path>
                <path d="M25.6816691,32.282127 C27.8212056,32.282127 28.9936863,31.2629247 28.9936863,29.0758247 C28.9936863,27.3613983 28.2857042,25.6494338 25.9847624,25.6494338 C24.491764,25.6494338 24.4711298,25.822255 24.4316955,26.8852782 C24.4092272,27.6218612 24.3895101,31.286066 24.3693344,32.108321 C24.7343304,32.1944855 25.0754823,32.282127 25.6816691,32.282127 Z M22.6534866,26.4948301 C22.5732426,25.9739045 22.3719446,25.6494338 21.3617862,25.6051206 C21.1811224,25.5839488 21.139854,25.562777 21.139854,25.4101428 C21.139854,25.1935007 21.139854,25.1275234 21.3617862,25.1275234 C25.2786145,25.1275234 26.1461677,25 26.6106663,25 C29.3352968,25 30.8695637,26.3865091 30.8695637,28.704579 C30.8695637,30.1782373 30.2046841,31.586903 28.3677824,32.3673067 C28.6493245,32.9739045 30.4458749,37.0265879 32.4047476,38.0251108 C32.9082219,38.286066 33.2915594,38.3722304 33.8972876,38.3934023 C34,38.3934023 34,38.4815362 34,38.6755293 C34,38.8271787 33.8775705,39 32.969666,39 C29.8612395,39 28.3269726,36.4643033 26.6106663,32.8665682 C26.3071144,32.9108813 25.4005855,32.9739045 24.3693344,32.9108813 C24.3693344,33.624323 24.3496173,36.8119153 24.4711298,37.4628262 C24.5509153,37.9827671 24.7114035,38.2422452 25.9237769,38.3722304 C26.2869387,38.4145741 26.3282071,38.4145741 26.3282071,38.6326933 C26.3282071,38.7853274 26.3071144,38.9133432 26.1461677,38.9133432 C25.4005855,38.9133432 24.1684949,38.8714919 23.522874,38.8714919 C22.8763359,38.8714919 21.5250256,38.9133432 21.2411908,38.9133432 C21.0591514,38.9133432 21,38.9133432 21,38.6543575 C21,38.4145741 21.0394342,38.4145741 21.4030546,38.3490891 C22.6135939,38.155096 22.6534866,37.5913343 22.7153892,36.4643033 C22.7754577,35.4884293 22.7754577,33.1910389 22.7754577,32.0443131 C22.7754577,30.5913343 22.7754577,27.4480551 22.6534866,26.4948301 L22.6534866,26.4948301 Z" id="Fill-6" fill="#FFFFFF"></path>
                <path d="M45.4761377,33.1891566 C45.1687178,32.316017 43.6744061,28.057477 43.3269891,27.0970234 C42.2191614,29.8275691 42.0982398,30.1535082 40.9508801,33.1891566 L45.4761377,33.1891566 Z M40.6839224,33.910489 C40.0300157,35.6592488 39.5793503,36.9228207 39.5793503,37.5573352 C39.5793503,38.1913536 40.2127934,38.3863218 40.7453134,38.4076541 C41.1341228,38.4309709 41.1759803,38.4309709 41.1759803,38.7365698 C41.1759803,38.8893692 41.1759803,38.9761871 40.9908772,38.9761871 C40.5430023,38.9761871 39.9481611,38.9116938 39.1700773,38.9116938 C38.8631225,38.9116938 37.4711291,38.9761871 37.1841729,38.9761871 C37.0199986,38.9761871 37,38.8893692 37,38.781219 C37,38.4964564 37.0199986,38.4964564 37.2041714,38.4523033 C37.8604035,38.3208363 38.3101388,37.2725726 38.7198769,36.3334515 C38.9849742,35.723742 42.2819476,27.9914954 42.8340011,26.3970234 C42.9777118,26.0472714 43.0595664,25.6995039 43.1628148,25.3259391 C43.2223454,25.1309709 43.3269891,25.0858257 43.6106898,25.0858257 C43.9413638,25.0858257 44.1659989,25 44.3297081,25 C44.45249,25 44.4924871,25.0644933 44.5952705,25.5888731 C44.7589797,26.4635011 48.1568761,36.2253012 48.9154264,37.7309709 C49.243775,38.3863218 49.46748,38.4309709 49.8976817,38.4964564 C49.9800014,38.5192771 50,38.562438 50,38.6934089 C50,38.9761871 49.9800014,39 49.837221,39 C49.181919,39 48.5061534,38.9548547 47.8499213,38.9548547 C47.0718374,38.9548547 46.3156125,38.9761871 45.5365985,39 C45.3733543,38.9761871 45.3528907,38.8893692 45.3528907,38.7365698 C45.3528907,38.4736357 45.3947481,38.4736357 45.7217015,38.4523033 C46.1719018,38.4076541 46.8267387,38.3441531 46.8267387,37.7309709 C46.8267387,37.2725726 45.9249428,34.6080085 45.6803091,33.910489 L40.6839224,33.910489 L40.6839224,33.910489 Z" id="Fill-7" fill="#FFFFFF"></path>
                <path d="M57.615788,25.5619794 C57.1140348,25.5178834 57.0689392,25.4963253 57.0689392,25.3023028 C57.0689392,25.0656541 57.1140348,25.0210681 57.3421045,25.0210681 C57.4561393,25.0210681 58.4378754,25.044586 58.9852426,25.044586 C59.5346831,25.044586 59.9680154,25.0210681 60.2634692,25.0210681 L60.4220813,25.0210681 C60.6050553,25.0210681 60.6968015,25.1509064 60.8341617,25.3228809 C62.2264231,27.0494855 69.1856572,33.9735424 70.5323048,35.4634983 C70.5323048,31.622734 70.5323048,28.2165605 70.4633656,27.4159726 C70.3477757,26.0146987 70.1435497,25.6041156 68.249535,25.4963253 C67.9763698,25.4963253 67.9535628,25.4541891 67.9535628,25.2582068 C67.9535628,25.044586 67.9991768,25 68.2054761,25 C69.0026832,25 70.0512852,25.0210681 70.8738909,25.0210681 C71.6503644,25.0210681 72.7222917,25 73.771412,25 C73.9528311,25 74,25.044586 74,25.2160706 C74,25.4963253 73.9528311,25.4963253 73.5200171,25.5830475 C72.084215,25.8633023 71.9017593,26.2738854 71.7182669,27.932876 C71.5586182,29.5943165 71.4901973,31.7511024 71.4901973,34.922587 C71.4901973,36.1749143 71.5347745,37.3380696 71.6026771,37.9201372 C71.6270391,38.1151396 71.7649175,38.5678589 71.7649175,38.6756492 C71.7649175,38.8255757 71.3300302,39 71.217032,39 C71.1014422,39 70.9423118,38.7839294 70.7365308,38.4816267 C69.3898832,36.6692798 68.249535,35.5271926 62.9101137,30.1768741 C61.7236333,29.011269 61.3125896,28.5154336 60.5366344,27.655071 C60.5366344,28.4301813 60.5366344,35.7417932 60.6745129,36.6482117 C60.7880294,37.3591377 60.9476781,38.0921117 62.7727536,38.177854 C63.2299296,38.2008819 63.2739885,38.22195 63.2739885,38.4600686 C63.2739885,38.6976972 63.2050492,38.7393435 63.0236302,38.7393435 C62.4301308,38.7393435 59.8291002,38.6976972 59.2822514,38.6976972 C58.9629539,38.6976972 57.5012349,38.7393435 57.2726469,38.7393435 C57.0907095,38.7393435 57,38.7182754 57,38.4380206 C57,38.22195 57.0466506,38.2008819 57.4789462,38.1362077 C58.8033052,37.9201372 59.121566,37.4674179 59.2578894,36.0009799 C59.4641888,34.0612445 59.4875141,30.9103381 59.4875141,29.1847134 C59.4875141,27.0494855 59.4875141,25.733464 57.615788,25.5619794" id="Fill-8" fill="#FFFFFF"></path>
                <path d="M81.9091628,36.7099182 C81.9927204,38.0979678 82.0962178,38.4719811 83.7274885,38.4934819 C84,38.5149827 84,38.5609843 84,38.803493 C84,38.9564984 83.9572717,39 83.7474284,39 C82.8297199,39 81.8887482,38.9564984 80.9686659,38.9564984 C80.5290394,38.9564984 78.627631,39 78.2307327,39 C78.0626681,39 78,38.9789992 78,38.7584914 C78,38.4719811 78.0427283,38.4719811 78.4391518,38.4484803 C79.9047318,38.3609772 79.9878145,37.5484482 80.0708973,36.3354048 C80.1743947,34.9283546 80.1743947,31.2282224 80.1743947,28.7656345 C80.1743947,26.0570378 80.0917867,25.5285189 78.7330274,25.5285189 C78.1889539,25.5285189 78.1053964,25.4850173 78.1053964,25.2420086 C78.1053964,25.0455016 78.1462257,25 78.2938756,25 C78.7330274,25 80.6757398,25.0455016 81.0526982,25.0455016 C81.4913752,25.0215008 83.4131983,25 83.8105713,25 C83.9572717,25 84,25.0455016 84,25.2420086 C84,25.5285189 83.9572717,25.5515197 83.5807881,25.5515197 C81.9523659,25.5735205 81.8460199,25.9475338 81.8251306,30.657202 C81.8251306,32.00075 81.8061402,35.4793743 81.9091628,36.7099182" id="Fill-9" fill="#FFFFFF"></path>
                <path d="M99.3492507,38.392998 C99.482855,38.4137081 100.087376,38.4580868 100.197612,38.5004931 C100.264669,38.545858 100.264669,38.6755424 100.264669,38.7850099 C100.264669,38.9358974 100.219456,39 99.9298959,39 C99.2583185,39 98.7228854,38.9358974 97.0459741,38.9358974 C96.5308611,38.9358974 94.2941326,39 93.7810516,39 C93.5793752,39 93.5336551,38.9358974 93.5336551,38.7406312 C93.5336551,38.4792899 93.6012192,38.4792899 94.0467361,38.4349112 C95.8826518,38.2406312 95.8826518,37.9166667 95.9497079,35.3323471 C96.01778,32.3145957 96.0614681,29.2968442 95.993396,26.2371795 C91.2313945,26.2149901 91.1186182,26.4546351 90.6035052,28.1908284 C90.5598171,28.2983235 90.4470409,28.3205128 90.2682245,28.3205128 C90.0904242,28.3205128 90,28.2559172 90,28.1035503 C90,27.7342209 90.3149606,26.2815582 90.514605,25.4561144 C90.6035052,25.1282051 90.6273813,25 90.7823216,25 C90.9174498,25 90.9174498,25 91.1186182,25.1084813 C91.2969266,25.193787 91.4315469,25.2174556 91.8557277,25.2598619 C92.6619253,25.3244576 95.4569469,25.3456607 96.2397765,25.3456607 C97.4483109,25.3456607 102.724917,25.3244576 103.284227,25.193787 C103.552959,25.1518738 103.709423,25.0212032 103.798832,25.0212032 C103.93396,25.0212032 104,25.0212032 104,25.1282051 C104,25.4975345 103.441707,27.5177515 103.328423,27.9077909 C103.239522,28.2771203 103.173482,28.2983235 102.97079,28.2983235 C102.792482,28.2983235 102.635509,28.2983235 102.635509,28.081854 C102.635509,27.7790927 102.703073,27.4965483 102.657353,27.2352071 C102.546101,26.3683432 101.92126,26.3027613 100.578613,26.2371795 L97.8735077,26.2371795 C97.8064516,27.821499 97.7835916,31.9245562 97.7835916,33.1829389 C97.7835916,38.1336292 97.8064516,38.1336292 99.3492507,38.392998" id="Fill-10" fill="#FFFFFF"></path>
                <path d="M111.875754,31.2673774 C115.684404,31.2673774 115.915596,31.243989 116.331848,31.1992026 C117.345216,31.069322 117.507733,30.565226 117.576933,29.7774829 C117.62464,29.513243 117.62464,29.4485516 117.878375,29.4485516 C118.129489,29.4485516 118.129489,29.5565366 118.129489,29.7993784 C118.129489,30.2581903 118.06291,31.2673774 118.06291,31.8356672 C118.06291,32.2954744 118.06291,33.0837152 118.129489,33.5674084 L118.129489,33.7629757 C118.129489,33.9376427 118.03827,33.9610312 117.853211,33.9610312 C117.599476,33.9610312 117.554915,33.9162448 117.532372,33.6092091 C117.462647,32.3825591 116.653211,32.1198121 115.477326,32.0765186 C114.784797,32.0337227 114.13945,32.0337227 111.875754,32.0113295 C111.875754,37.7270707 111.875754,37.7270707 112.268938,37.9251262 C112.569332,38.0783952 112.984535,38.1017837 114.368021,38.1017837 C117.532372,38.1017837 118.36173,37.639986 119.077851,36.2595693 C119.216252,35.9978176 119.423329,35.2961639 119.539712,35.2961639 C119.930799,35.2961639 120,35.3847414 120,35.514622 C120,35.8878421 119.471035,38.0569972 119.306946,38.5610932 C119.216252,38.846731 119.193185,39 118.983486,39 C118.384273,39 114.231717,38.8681289 111.992661,38.8681289 C110.998689,38.8681289 108.807339,39 108.347051,39 C108.045085,39 108,38.954716 108,38.7357602 C108,38.472018 108.045085,38.472018 108.323984,38.45062 C109.407077,38.3421374 109.800786,38.2978486 109.915596,37.1378806 C110.007339,36.1948778 110.007339,32.9309438 110.007339,31.7251941 C110.007339,30.7184951 110.007339,26.6857277 109.868414,26.1836222 C109.753604,25.658626 109.361992,25.6138396 108.507471,25.5476552 C108.323984,25.5476552 108.231193,25.5476552 108.231193,25.283913 C108.231193,25.0430617 108.347051,25.0216637 108.460288,25.0216637 C108.968807,25.0216637 111.229882,25.0883457 111.669201,25.0883457 C112.037221,25.0883457 117.345216,25.0430617 117.970118,25.0216637 L118.847706,25.0007634 C119.306946,25.0007634 119.471035,24.9768773 119.471035,25.1963307 C119.471035,25.3709977 119.330537,26.0960399 119.306946,26.249309 C119.238794,26.9947539 119.216252,27.542641 119.216252,28.1985131 C119.216252,28.3517821 119.146527,28.3965685 118.916383,28.3965685 C118.593447,28.3965685 118.593447,28.3517821 118.54574,27.9367614 C118.431455,26.2921049 118.36173,25.8113974 114.600786,25.8113974 C114.231717,25.8113974 112.154128,25.8113974 111.969594,26.0288603 C111.875754,26.1174379 111.875754,26.4458716 111.875754,26.5777426 L111.875754,31.2673774" id="Fill-11" fill="#FFFFFF"></path>
                <path d="M1.36326286,48.4366461 L1.36326286,53.5547817 L2.60089099,53.5547817 C4.0062114,53.5547817 4.65501577,52.2169837 4.63516303,50.9316903 C4.6140431,49.6796143 3.96439393,48.4366461 2.60089099,48.4366461 L1.36326286,48.4366461 Z M4.99927069,50.9316903 C5.02714901,52.4580766 4.25627142,54 2.60089099,54 C2.06782386,54 1.53306713,54 1,54 L1,48 C1.53306713,48 2.06782386,48 2.60089099,48 C4.20304918,48 4.97265958,49.4567372 4.99927069,50.9316903 L4.99927069,50.9316903 Z" id="Fill-12" fill="#FFFFFF"></path>
                <polyline id="Fill-13" fill="#FFFFFF" points="12.428842 50.7688186 15.7408764 50.7688186 15.7408764 51.1867131 12.428842 51.1867131 12.428842 53.5547817 16 53.5547817 16 54 12 54 12 48 15.9030181 48 15.9030181 48.4366461 12.428842 48.4366461 12.428842 50.7688186"></polyline>
                <polyline id="Fill-14" fill="#FFFFFF" points="27 48 24.2753623 54 23.7258208 54 21 48 21.5501331 48 24.0008873 53.4700383 26.4522331 48 27 48"></polyline>
                <polyline id="Fill-15" fill="#FFFFFF" points="31.4287879 50.7688186 34.7409091 50.7688186 34.7409091 51.1867131 31.4287879 51.1867131 31.4287879 53.5547817 35 53.5547817 35 54 31 54 31 48 34.9035354 48 34.9035354 48.4366461 31.4287879 48.4366461 31.4287879 50.7688186"></polyline>
                <polygon id="Clip-17" points="57 54 42 54 42 48 57 48 57 54"></polygon>
                <polyline id="Fill-16" fill="#FFFFFF" points="42.6014513 48 42.6014513 53.5617466 47 53.5617466 47 54 42 54 42 48 42.6014513 48"></polyline>
                <path d="M51.4503815,50.9948124 C51.4599415,52.3062424 52.3091869,53.5865468 54.000242,53.5865468 C55.6992638,53.5865468 56.5580692,52.3062424 56.5580692,50.9948124 C56.5580692,49.6507003 55.7082927,48.4144907 54.000242,48.4144907 C52.2927224,48.4144907 51.4413526,49.6263185 51.4503815,50.9948124 Z M56.9999529,51.0051876 C56.9914552,52.5319039 55.9972167,54 54.000242,54 C52.0032673,54 51,52.5241224 51,50.987031 C51,49.4276327 51.9947696,48 54.000242,48 C56.0046522,48 57.0079196,49.4348954 56.9999529,51.0051876 L56.9999529,51.0051876 Z" id="Fill-18" fill="#FFFFFF"></path>
                <path d="M63.4033299,48.4270024 L63.4033299,51.5054916 L65.2961297,51.5054916 C67.0361034,51.5054916 67.0361034,48.4270024 65.2961297,48.4270024 L63.4033299,48.4270024 Z M63.4033299,51.9260648 L63.4033299,54 L63,54 L63,48 C63.7617935,48 64.5319994,48 65.2961297,48 C67.5679568,48 67.5679568,51.9260648 65.2961297,51.9260648 L63.4033299,51.9260648 L63.4033299,51.9260648 Z" id="Fill-20" fill="#FFFFFF"></path>
                <path d="M79.5220138,48.6686311 L77.0947488,52.1821591 L76.9346658,52.1821591 L74.4881682,48.6686311 L74.4881682,54 L74,54 L74,48 C74.2370133,48 74.3450552,48 74.5803715,48 L77.0059395,51.4969194 L79.402093,48 L80,48 L80,54 L79.5220138,54 L79.5220138,48.6686311" id="Fill-21" fill="#FFFFFF"></path>
                <polyline id="Fill-22" fill="#FFFFFF" points="86.5360525 50.7688186 90.6767269 50.7688186 90.6767269 51.1867131 86.5360525 51.1867131 86.5360525 53.5547817 91 53.5547817 91 54 86 54 86 48 90.8800354 48 90.8800354 48.4366461 86.5360525 48.4366461 86.5360525 50.7688186"></polyline>
                <polyline id="Fill-23" fill="#FFFFFF" points="94.1677139 48 97.6115618 52.9611572 97.6115618 48 98 48 98 54 97.8450817 54 94.39575 49.0447361 94.39575 54 94 54 94 48 94.1677139 48"></polyline>
                <polygon id="Clip-25" points="119 54 105 54 105 48 119 48 119 54"></polygon>
                <polyline id="Fill-24" fill="#FFFFFF" points="107.258875 48.4114807 105 48.4114807 105 48 110 48 110 48.4114807 107.740009 48.4114807 107.740009 54 107.258875 54 107.258875 48.4114807"></polyline>
                <path d="M119.539246,49.2047859 C119.178271,48.5238426 118.596009,48.4250043 118.035477,48.4146003 C117.454102,48.4146003 116.531264,48.6648171 116.531264,49.5975377 C116.531264,50.3377839 117.211973,50.5130917 118.050111,50.6951621 C119.007982,50.912086 120,51.1123634 120,52.3696896 C119.994235,53.6842379 118.864745,54 118.035477,54 C117.261641,54 116.383149,53.6238946 116,52.7348708 L116.340576,52.5356338 C116.64612,53.2425871 117.425277,53.5932027 118.035477,53.5932027 C118.64745,53.5932027 119.617738,53.3918849 119.617738,52.3608462 C119.624834,51.4863881 118.802217,51.294954 117.986253,51.1123634 C117.077605,50.9032426 116.149002,50.6873591 116.149002,49.6147044 C116.127716,48.3818276 117.220399,48 118.035477,48 C118.745011,48 119.361419,48.1321311 119.851441,48.9909832 L119.539246,49.2047859" id="Fill-26" fill="#FFFFFF"></path>
            </g>
        </g>
    </g>
</svg>